<mxfile host="app.diagrams.net" modified="2024-01-06T03:32:31.914Z" agent="Mozilla/5.0 (Windows NT 10.0; Win64; x64) AppleWebKit/537.36 (KHTML, like Gecko) Chrome/120.0.0.0 Safari/537.36" etag="XJPSGdIvyn6VmSunsOFA" version="22.1.17" type="github">
  <diagram name="Page-1" id="1y0Lt7-OOQbpv-a5dl2u">
    <mxGraphModel dx="1008" dy="1692" grid="1" gridSize="10" guides="1" tooltips="1" connect="1" arrows="1" fold="1" page="1" pageScale="1" pageWidth="850" pageHeight="1100" math="0" shadow="0">
      <root>
        <mxCell id="0" />
        <mxCell id="1" parent="0" />
        <mxCell id="HV5neGClS2xwhYB9-4MU-2" value="Actor" style="shape=umlActor;verticalLabelPosition=bottom;verticalAlign=top;html=1;outlineConnect=0;" vertex="1" parent="1">
          <mxGeometry x="180" y="580" width="30" height="60" as="geometry" />
        </mxCell>
        <mxCell id="HV5neGClS2xwhYB9-4MU-3" value="LB" style="rounded=0;whiteSpace=wrap;html=1;" vertex="1" parent="1">
          <mxGeometry x="55" y="-230" width="895" height="30" as="geometry" />
        </mxCell>
        <mxCell id="HV5neGClS2xwhYB9-4MU-4" value="LB" style="rounded=0;whiteSpace=wrap;html=1;" vertex="1" parent="1">
          <mxGeometry x="30" y="490" width="340" height="50" as="geometry" />
        </mxCell>
        <mxCell id="HV5neGClS2xwhYB9-4MU-22" value="Hotel Service" style="rounded=0;whiteSpace=wrap;html=1;" vertex="1" parent="1">
          <mxGeometry x="40" y="400" width="120" height="60" as="geometry" />
        </mxCell>
        <mxCell id="HV5neGClS2xwhYB9-4MU-37" value="CDN" style="ellipse;shape=cloud;whiteSpace=wrap;html=1;" vertex="1" parent="1">
          <mxGeometry x="810" y="-60" width="120" height="80" as="geometry" />
        </mxCell>
        <mxCell id="HV5neGClS2xwhYB9-4MU-5" value="User Service" style="rounded=0;whiteSpace=wrap;html=1;" vertex="1" parent="1">
          <mxGeometry x="65" y="-160" width="120" height="60" as="geometry" />
        </mxCell>
        <mxCell id="HV5neGClS2xwhYB9-4MU-69" style="edgeStyle=orthogonalEdgeStyle;rounded=0;orthogonalLoop=1;jettySize=auto;html=1;exitX=0.75;exitY=1;exitDx=0;exitDy=0;" edge="1" parent="1" source="HV5neGClS2xwhYB9-4MU-6">
          <mxGeometry relative="1" as="geometry">
            <mxPoint x="610" y="-40" as="targetPoint" />
          </mxGeometry>
        </mxCell>
        <mxCell id="HV5neGClS2xwhYB9-4MU-6" value="Payment service" style="rounded=0;whiteSpace=wrap;html=1;" vertex="1" parent="1">
          <mxGeometry x="520" y="-160" width="120" height="60" as="geometry" />
        </mxCell>
        <mxCell id="HV5neGClS2xwhYB9-4MU-55" style="edgeStyle=orthogonalEdgeStyle;rounded=0;orthogonalLoop=1;jettySize=auto;html=1;exitX=0.5;exitY=1;exitDx=0;exitDy=0;" edge="1" parent="1" source="HV5neGClS2xwhYB9-4MU-7" target="HV5neGClS2xwhYB9-4MU-17">
          <mxGeometry relative="1" as="geometry" />
        </mxCell>
        <mxCell id="HV5neGClS2xwhYB9-4MU-7" value="Booking Service" style="rounded=0;whiteSpace=wrap;html=1;" vertex="1" parent="1">
          <mxGeometry x="365" y="-160" width="120" height="60" as="geometry" />
        </mxCell>
        <mxCell id="HV5neGClS2xwhYB9-4MU-62" style="edgeStyle=orthogonalEdgeStyle;rounded=0;orthogonalLoop=1;jettySize=auto;html=1;exitX=0.5;exitY=1;exitDx=0;exitDy=0;" edge="1" parent="1" source="HV5neGClS2xwhYB9-4MU-8" target="HV5neGClS2xwhYB9-4MU-26">
          <mxGeometry relative="1" as="geometry" />
        </mxCell>
        <mxCell id="HV5neGClS2xwhYB9-4MU-8" value="Serch Service" style="rounded=0;whiteSpace=wrap;html=1;" vertex="1" parent="1">
          <mxGeometry x="210" y="-160" width="120" height="60" as="geometry" />
        </mxCell>
        <mxCell id="HV5neGClS2xwhYB9-4MU-9" value="Dashboard Service" style="rounded=0;whiteSpace=wrap;html=1;" vertex="1" parent="1">
          <mxGeometry x="670" y="-160" width="120" height="60" as="geometry" />
        </mxCell>
        <mxCell id="HV5neGClS2xwhYB9-4MU-10" value="Review Service" style="rounded=0;whiteSpace=wrap;html=1;" vertex="1" parent="1">
          <mxGeometry x="820" y="-160" width="120" height="60" as="geometry" />
        </mxCell>
        <mxCell id="HV5neGClS2xwhYB9-4MU-33" value="Notification Service" style="rounded=0;whiteSpace=wrap;html=1;" vertex="1" parent="1">
          <mxGeometry x="75" y="70" width="120" height="60" as="geometry" />
        </mxCell>
        <mxCell id="HV5neGClS2xwhYB9-4MU-48" value="" style="edgeStyle=orthogonalEdgeStyle;rounded=0;orthogonalLoop=1;jettySize=auto;html=1;" edge="1" parent="1" source="HV5neGClS2xwhYB9-4MU-15" target="HV5neGClS2xwhYB9-4MU-22">
          <mxGeometry relative="1" as="geometry" />
        </mxCell>
        <mxCell id="HV5neGClS2xwhYB9-4MU-15" value="Hotels DB" style="shape=cylinder3;whiteSpace=wrap;html=1;boundedLbl=1;backgroundOutline=1;size=15;" vertex="1" parent="1">
          <mxGeometry x="70" y="290" width="60" height="70" as="geometry" />
        </mxCell>
        <mxCell id="HV5neGClS2xwhYB9-4MU-11" value="User DB" style="shape=cylinder3;whiteSpace=wrap;html=1;boundedLbl=1;backgroundOutline=1;size=15;" vertex="1" parent="1">
          <mxGeometry x="95" y="-52.5" width="60" height="90" as="geometry" />
        </mxCell>
        <mxCell id="HV5neGClS2xwhYB9-4MU-17" value="Booking DB" style="shape=cylinder3;whiteSpace=wrap;html=1;boundedLbl=1;backgroundOutline=1;size=15;" vertex="1" parent="1">
          <mxGeometry x="460" y="-45" width="60" height="75" as="geometry" />
        </mxCell>
        <mxCell id="HV5neGClS2xwhYB9-4MU-50" value="" style="edgeStyle=orthogonalEdgeStyle;rounded=0;orthogonalLoop=1;jettySize=auto;html=1;" edge="1" parent="1" source="HV5neGClS2xwhYB9-4MU-23" target="HV5neGClS2xwhYB9-4MU-33">
          <mxGeometry relative="1" as="geometry" />
        </mxCell>
        <mxCell id="HV5neGClS2xwhYB9-4MU-63" style="edgeStyle=orthogonalEdgeStyle;rounded=0;orthogonalLoop=1;jettySize=auto;html=1;exitX=1;exitY=0.5;exitDx=0;exitDy=0;exitPerimeter=0;" edge="1" parent="1" source="HV5neGClS2xwhYB9-4MU-23" target="HV5neGClS2xwhYB9-4MU-26">
          <mxGeometry relative="1" as="geometry" />
        </mxCell>
        <mxCell id="HV5neGClS2xwhYB9-4MU-23" value="Kafka" style="strokeWidth=2;html=1;shape=mxgraph.flowchart.direct_data;whiteSpace=wrap;" vertex="1" parent="1">
          <mxGeometry x="40" y="170" width="190" height="60" as="geometry" />
        </mxCell>
        <mxCell id="HV5neGClS2xwhYB9-4MU-26" value="Elastic Search" style="strokeWidth=2;html=1;shape=mxgraph.flowchart.database;whiteSpace=wrap;" vertex="1" parent="1">
          <mxGeometry x="240" y="-40" width="60" height="85" as="geometry" />
        </mxCell>
        <mxCell id="HV5neGClS2xwhYB9-4MU-28" value="Redis" style="strokeWidth=2;html=1;shape=mxgraph.flowchart.database;whiteSpace=wrap;" vertex="1" parent="1">
          <mxGeometry x="700" y="-45" width="60" height="60" as="geometry" />
        </mxCell>
        <mxCell id="HV5neGClS2xwhYB9-4MU-79" style="edgeStyle=orthogonalEdgeStyle;rounded=0;orthogonalLoop=1;jettySize=auto;html=1;exitX=1;exitY=0.75;exitDx=0;exitDy=0;entryX=0;entryY=0;entryDx=0;entryDy=27.5;entryPerimeter=0;" edge="1" parent="1" source="HV5neGClS2xwhYB9-4MU-47" target="HV5neGClS2xwhYB9-4MU-78">
          <mxGeometry relative="1" as="geometry">
            <mxPoint x="530" y="445" as="targetPoint" />
          </mxGeometry>
        </mxCell>
        <mxCell id="HV5neGClS2xwhYB9-4MU-47" value="Reservation Service" style="rounded=0;whiteSpace=wrap;html=1;" vertex="1" parent="1">
          <mxGeometry x="240" y="400" width="120" height="60" as="geometry" />
        </mxCell>
        <mxCell id="HV5neGClS2xwhYB9-4MU-49" style="edgeStyle=orthogonalEdgeStyle;rounded=0;orthogonalLoop=1;jettySize=auto;html=1;exitX=0;exitY=0.5;exitDx=0;exitDy=0;entryX=0;entryY=0.5;entryDx=0;entryDy=0;entryPerimeter=0;" edge="1" parent="1" source="HV5neGClS2xwhYB9-4MU-22" target="HV5neGClS2xwhYB9-4MU-23">
          <mxGeometry relative="1" as="geometry" />
        </mxCell>
        <mxCell id="HV5neGClS2xwhYB9-4MU-52" style="edgeStyle=orthogonalEdgeStyle;rounded=0;orthogonalLoop=1;jettySize=auto;html=1;exitX=0;exitY=0.5;exitDx=0;exitDy=0;entryX=0.561;entryY=1.006;entryDx=0;entryDy=0;entryPerimeter=0;" edge="1" parent="1" source="HV5neGClS2xwhYB9-4MU-33" target="HV5neGClS2xwhYB9-4MU-73">
          <mxGeometry relative="1" as="geometry">
            <mxPoint x="110" y="-350" as="targetPoint" />
            <Array as="points">
              <mxPoint x="30" y="100" />
              <mxPoint x="30" y="-350" />
              <mxPoint x="129" y="-350" />
            </Array>
          </mxGeometry>
        </mxCell>
        <mxCell id="HV5neGClS2xwhYB9-4MU-54" style="edgeStyle=orthogonalEdgeStyle;rounded=0;orthogonalLoop=1;jettySize=auto;html=1;exitX=0.875;exitY=0.5;exitDx=0;exitDy=0;exitPerimeter=0;" edge="1" parent="1" source="HV5neGClS2xwhYB9-4MU-37" target="HV5neGClS2xwhYB9-4MU-74">
          <mxGeometry relative="1" as="geometry">
            <mxPoint x="250" y="-350" as="targetPoint" />
            <Array as="points">
              <mxPoint x="980" y="-20" />
              <mxPoint x="980" y="-350" />
              <mxPoint x="230" y="-350" />
            </Array>
          </mxGeometry>
        </mxCell>
        <mxCell id="HV5neGClS2xwhYB9-4MU-57" style="edgeStyle=orthogonalEdgeStyle;rounded=0;orthogonalLoop=1;jettySize=auto;html=1;exitX=0.5;exitY=1;exitDx=0;exitDy=0;entryX=0.5;entryY=0;entryDx=0;entryDy=0;entryPerimeter=0;" edge="1" parent="1" source="HV5neGClS2xwhYB9-4MU-6" target="HV5neGClS2xwhYB9-4MU-17">
          <mxGeometry relative="1" as="geometry" />
        </mxCell>
        <mxCell id="HV5neGClS2xwhYB9-4MU-58" style="edgeStyle=orthogonalEdgeStyle;rounded=0;orthogonalLoop=1;jettySize=auto;html=1;exitX=0.5;exitY=1;exitDx=0;exitDy=0;entryX=0.5;entryY=0;entryDx=0;entryDy=0;entryPerimeter=0;" edge="1" parent="1" source="HV5neGClS2xwhYB9-4MU-9" target="HV5neGClS2xwhYB9-4MU-28">
          <mxGeometry relative="1" as="geometry" />
        </mxCell>
        <mxCell id="HV5neGClS2xwhYB9-4MU-60" style="edgeStyle=orthogonalEdgeStyle;rounded=0;orthogonalLoop=1;jettySize=auto;html=1;exitX=0.5;exitY=1;exitDx=0;exitDy=0;entryX=0.5;entryY=0;entryDx=0;entryDy=0;entryPerimeter=0;" edge="1" parent="1" source="HV5neGClS2xwhYB9-4MU-10" target="HV5neGClS2xwhYB9-4MU-28">
          <mxGeometry relative="1" as="geometry" />
        </mxCell>
        <mxCell id="HV5neGClS2xwhYB9-4MU-66" style="edgeStyle=orthogonalEdgeStyle;rounded=0;orthogonalLoop=1;jettySize=auto;html=1;exitX=0.5;exitY=1;exitDx=0;exitDy=0;entryX=0.5;entryY=0;entryDx=0;entryDy=0;entryPerimeter=0;" edge="1" parent="1" source="HV5neGClS2xwhYB9-4MU-5" target="HV5neGClS2xwhYB9-4MU-11">
          <mxGeometry relative="1" as="geometry" />
        </mxCell>
        <mxCell id="HV5neGClS2xwhYB9-4MU-68" style="edgeStyle=orthogonalEdgeStyle;rounded=0;orthogonalLoop=1;jettySize=auto;html=1;exitX=0.25;exitY=1;exitDx=0;exitDy=0;entryX=1;entryY=0.5;entryDx=0;entryDy=0;entryPerimeter=0;" edge="1" parent="1" source="HV5neGClS2xwhYB9-4MU-7" target="HV5neGClS2xwhYB9-4MU-23">
          <mxGeometry relative="1" as="geometry" />
        </mxCell>
        <mxCell id="HV5neGClS2xwhYB9-4MU-70" value="Payment Gateway" style="ellipse;shape=cloud;whiteSpace=wrap;html=1;" vertex="1" parent="1">
          <mxGeometry x="560" y="-47.5" width="120" height="80" as="geometry" />
        </mxCell>
        <mxCell id="HV5neGClS2xwhYB9-4MU-73" value="" style="verticalLabelPosition=bottom;verticalAlign=top;html=1;shadow=0;dashed=0;strokeWidth=1;shape=mxgraph.android.phone2;strokeColor=#c0c0c0;" vertex="1" parent="1">
          <mxGeometry x="95" y="-490" width="60" height="120" as="geometry" />
        </mxCell>
        <mxCell id="HV5neGClS2xwhYB9-4MU-74" value="desktop" style="sketch=0;outlineConnect=0;gradientColor=none;fontColor=#545B64;strokeColor=none;fillColor=#879196;dashed=0;verticalLabelPosition=bottom;verticalAlign=top;align=center;html=1;fontSize=12;fontStyle=0;aspect=fixed;shape=mxgraph.aws4.illustration_desktop;pointerEvents=1" vertex="1" parent="1">
          <mxGeometry x="180" y="-500" width="100" height="91" as="geometry" />
        </mxCell>
        <mxCell id="HV5neGClS2xwhYB9-4MU-76" style="edgeStyle=orthogonalEdgeStyle;rounded=0;orthogonalLoop=1;jettySize=auto;html=1;exitX=0.75;exitY=0;exitDx=0;exitDy=0;entryX=0.13;entryY=0.77;entryDx=0;entryDy=0;entryPerimeter=0;" edge="1" parent="1" source="HV5neGClS2xwhYB9-4MU-22" target="HV5neGClS2xwhYB9-4MU-37">
          <mxGeometry relative="1" as="geometry">
            <Array as="points">
              <mxPoint x="130" y="360" />
              <mxPoint x="826" y="360" />
            </Array>
          </mxGeometry>
        </mxCell>
        <mxCell id="HV5neGClS2xwhYB9-4MU-77" style="edgeStyle=orthogonalEdgeStyle;rounded=0;orthogonalLoop=1;jettySize=auto;html=1;exitX=1;exitY=0.5;exitDx=0;exitDy=0;entryX=0.5;entryY=1;entryDx=0;entryDy=0;entryPerimeter=0;" edge="1" parent="1" source="HV5neGClS2xwhYB9-4MU-47" target="HV5neGClS2xwhYB9-4MU-17">
          <mxGeometry relative="1" as="geometry" />
        </mxCell>
        <mxCell id="HV5neGClS2xwhYB9-4MU-78" value="Cassandra" style="shape=cylinder3;whiteSpace=wrap;html=1;boundedLbl=1;backgroundOutline=1;size=15;" vertex="1" parent="1">
          <mxGeometry x="570" y="420" width="60" height="80" as="geometry" />
        </mxCell>
      </root>
    </mxGraphModel>
  </diagram>
</mxfile>
